P2
16
32
255
0   0   255 255 0   255 0   255 0   64  128 160 192 224 240 248
0   0   255 255 0   255 0   255 0   64  128 160 192 224 240 248
0   0   255 255 0   255 0   255 0   64  128 160 192 224 240 248
0   0   255 255 0   255 0   255 0   64  128 160 192 224 240 248
0   0   255 255 0   255 0   255 0   64  128 160 192 224 240 248
0   0   255 255 0   255 0   255 0   64  128 160 192 224 240 248
0   0   255 255 0   255 0   255 0   64  128 160 192 224 240 248
0   0   255 255 0   255 0   255 0   64  128 160 192 224 240 248
0   0   0   0   0   0   0   0   0   0   0   0   0   0   0   0
0   0   0   0   0   0   0   0   0   0   0   0   0   0   0   0
0   0   0   0   0   0   0   0   0   0   0   0   0   0   0   0
0   0   0   0   0   0   0   0   0   0   0   0   0   0   0   0
0   0   0   0   0   0   0   0   0   0   0   0   0   0   0   0
0   0   0   0   0   0   0   0   0   0   0   0   0   0   0   0
0   0   0   0   0   0   0   0   0   0   0   0   0   0   0   0
0   0   0   0   0   0   0   0   0   0   0   0   0   0   0   0
248 224 192 160 128 64  32  16  248 224 192 160 128 64  32  16
248 224 192 160 128 64  32  16  248 224 192 160 128 64  32  16
248 224 192 160 128 64  32  16  248 224 192 160 128 64  32  16
248 224 192 160 128 64  32  16  248 224 192 160 128 64  32  16
248 224 192 160 128 64  32  16  248 224 192 160 128 64  32  16
248 224 192 160 128 64  32  16  248 224 192 160 128 64  32  16
248 224 192 160 128 64  32  16  248 224 192 160 128 64  32  16
248 224 192 160 128 64  32  16  248 224 192 160 128 64  32  16
0   0   0   0   0   0   0   0   248 224 192 160 128 64  32  16
0   0   0   0   0   0   0   0   248 224 192 160 128 64  32  16
0   0   0   0   0   0   0   0   248 224 192 160 128 64  32  16
0   0   0   0   0   0   0   0   248 224 192 160 128 64  32  16
0   0   0   0   0   0   0   0   248 224 192 160 128 64  32  16
0   0   0   0   0   0   0   0   248 224 192 160 128 64  32  16
0   0   0   0   0   0   0   0   248 224 192 160 128 64  32  16
0   0   0   0   0   0   0   0   248 224 192 160 128 64  32  16
