P2
16
32
255
255 255 255 255 255 255 255 255 255 255 255 255 255 255 255 255
160 160 160 160 160 160 160 160 160 160 160 160 160 160 160 160
128 128 128 128 128 128 128 128 128 128 128 128 128 128 128 128
96  96  96  96  96  96  96  96  96  96  96  96  96  96  96  96
64  64  64  64  64  64  64  64  64  64  64  64  64  64  64  64
32  32  32  32  32  32  32  32  32  32  32  32  32  32  32  32
16  16  16  16  16  16  16  16  16  16  16  16  16  16  16  16
0   0   0   0   0   0   0   0   0   0   0   0   0   0   0   0
255 255 255 255 255 255 255 255 255 255 255 255 255 255 255 255
160 160 160 160 160 160 160 160 160 160 160 160 160 160 160 160
128 128 128 128 128 128 128 128 128 128 128 128 128 128 128 128
96  96  96  96  96  96  96  96  96  96  96  96  96  96  96  96
64  64  64  64  64  64  64  64  64  64  64  64  64  64  64  64
32  32  32  32  32  32  32  32  32  32  32  32  32  32  32  32
16  16  16  16  16  16  16  16  16  16  16  16  16  16  16  16
0   0   0   0   0   0   0   0   0   0   0   0   0   0   0   0
255 255 255 255 255 255 255 255 255 255 255 255 255 255 255 255
160 160 160 160 160 160 160 160 160 160 160 160 160 160 160 160
128 128 128 128 128 128 128 128 128 128 128 128 128 128 128 128
96  96  96  96  96  96  96  96  96  96  96  96  96  96  96  96
64  64  64  64  64  64  64  64  64  64  64  64  64  64  64  64
32  32  32  32  32  32  32  32  32  32  32  32  32  32  32  32
16  16  16  16  16  16  16  16  16  16  16  16  16  16  16  16
0   0   0   0   0   0   0   0   0   0   0   0   0   0   0   0
255 255 255 255 255 255 255 255 255 255 255 255 255 255 255 255
160 160 160 160 160 160 160 160 160 160 160 160 160 160 160 160
128 128 128 128 128 128 128 128 128 128 128 128 128 128 128 128
96  96  96  96  96  96  96  96  96  96  96  96  96  96  96  96
64  64  64  64  64  64  64  64  64  64  64  64  64  64  64  64
32  32  32  32  32  32  32  32  32  32  32  32  32  32  32  32
16  16  16  16  16  16  16  16  16  16  16  16  16  16  16  16
0   0   0   0   0   0   0   0   0   0   0   0   0   0   0   0
