P2
16
32
255
110 38  116 249 175 248 31  69  8   119 133 143 183 57  251 26
76  173 217 174 85  44  157 11  135 139 251 134 28  254 129 127
236 204 58  70  216 59  61  39  191 72  2   8   53  244 249 182
16  89  20  186 13  3   36  176 162 100 51  123 231 240 91  100
230 77  113 242 29  79  201 94  23  162 62  182 17  137 46  66
55  16  168 164 204 21  83  148 216 181 174 86  175 110 252 80
39  25  77  200 219 139 69  211 224 154 251 172 35  130 74  163
4   228 233 221 120 160 100 116 7   187 50  93  67  139 109 117
225 149 76  16  115 102 158 22  7   50  249 40  198 113 79  230
181 255 56  65  214 79  8   228 182 200 222 101 144 251 24  105
143 154 26  19  164 26  191 123 107 70  166 185 22  28  43  251
145 221 123 144 112 83  72  38  147 165 149 74  163 178 174 48
101 39  50  81  97  56  231 82  236 192 50  82  164 133 82  33
228 135 184 234 148 17  213 179 211 170 103 31  26  98  124 235
193 180 43  80  196 35  220 116 217 37  179 101 60  34  135 62
11  246 59  16  49  48  193 94  0   198 234 26  222 211 215 250
42  126 59  120 236 107 247 207 244 190 19  178 88  183 103 106
136 56  244 153 200 42  108 184 150 145 146 10  112 119 194 103
146 6   117 143 125 133 173 151 93  173 198 225 42  116 74  235
239 6   102 56  215 1   144 170 130 34  182 127 117 134 157 90
163 212 162 159 94  254 197 24  18  68  13  5   226 89  209 36
216 87  229 130 6   174 142 29  29  191 216 161 160 70  60  152
194 72  118 117 44  120 72  113 141 0   142 199 239 136 148 166
186 98  248 182 176 137 49  159 100 195 216 29  228 13  100 180
75  117 97  21  43  119 194 76  117 179 246 99  224 95  78  211
129 151 201 7   193 131 72  79  184 227 221 34  238 45  193 86
135 193 236 211 80  244 191 210 89  245 68  196 60  236 133 244
119 37  152 91  85  83  68  197 243 22  190 58  177 90  148 136
68  44  133 185 231 191 176 177 81  42  130 111 122 244 211 10
174 83  59  221 22  219 215 93  204 106 43  213 211 8   111 22
70  253 100 219 201 169 255 158 158 15  165 47  53  91  132 126
119 46  123 46  91  14  143 129 127 210 71  230 134 102 234 43
