P2
16
32
255
219 73  173 29  207 21  87  241 216 184 248 235 81  250 86  101
19  244 114 156 3   35  234 51  188 181 131 169 84  58  49  41
238 86  175 254 239 139 246 244 115 38  102 198 94  210 130 70
235 232 170 58  93  22  161 149 103 149 68  119 136 166 171 114
60  183 153 221 225 61  186 116 101 90  22  81  54  244 122 29
24  23  140 129 229 157 239 46  223 132 164 61  144 31  3   183
30  215 109 245 244 167 67  152 120 117 249 138 189 245 177 38
112 248 223 190 115 18  135 40  220 122 77  244 113 157 249 77
194 89  176 161 208 151 191 248 176 231 181 131 107 76  92  75
98  160 252 155 201 16  8   122 109 53  120 166 27  93  218 166
47  66  44  220 173 235 191 106 120 186 160 36  53  20  141 144
223 220 173 246 30  35  168 55  201 251 91  28  206 245 91  23
111 79  37  45  223 252 108 17  108 0   81  125 78  240 178 20
219 92  71  158 212 111 133 133 136 69  149 87  190 58  63  204
138 94  41  104 56  253 113 49  60  201 229 90  87  34  3   120
4   207 83  36  45  35  114 124 71  88  193 37  147 41  89  54
151 66  39  248 247 45  166 12  106 88  42  174 107 183 119 191
64  236 139 229 158 213 25  67  40  2   183 220 110 199 186 123
154 90  145 86  111 155 111 228 137 59  96  242 197 128 228 215
244 197 204 122 219 195 140 149 49  111 244 24  191 164 211 151
143 127 210 126 132 192 33  89  235 105 246 7   154 89  185 31
17  213 53  155 205 112 202 43  27  42  127 81  176 125 10  159
175 145 145 101 214 185 99  42  184 216 57  222 141 195 224 246
193 63  151 149 49  108 200 39  184 177 216 75  2   152 199 205
153 85  214 106 232 45  134 52  10  39  64  101 45  112 127 38
235 251 166 116 222 16  11  158 205 60  230 217 231 10  128 231
186 251 232 14  199 182 37  214 215 235 220 26  143 27  123 65
217 46  225 142 209 53  30  144 110 146 198 183 55  235 251 15
191 67  195 160 208 64  71  109 220 164 49  177 87  137 43  185
202 100 214 1   53  7   128 15  172 142 205 71  195 114 69  218
16  195 114 190 172 233 224 14  46  5   149 7   197 12  73  121
54  83  21  153 200 193 86  141 252 114 180 240 34  249 40  182
