P2
16
32
255
183 209 116 173 216 118 224 173 188 251 126 33  140 242 109 174
200 45  176 152 17  123 60  30  72  174 243 111 235 35  172 174
118 91  249 162 4   192 183 226 102 99  4   145 238 164 127 102
11  234 110 126 58  228 72  199 110 127 23  15  116 2   226 216
230 249 130 248 104 64  182 195 242 51  221 106 51  118 201 197
201 167 34  129 236 41  121 206 96  88  2   134 166 58  145 22
73  54  122 58  146 52  200 108 195 236 161 18  69  62  196 13
94  61  61  164 162 39  145 60  32  250 114 90  103 166 97  82
147 147 244 117 234 75  74  118 173 168 218 124 224 64  189 141
93  70  92  14  195 107 126 212 235 224 232 255 113 65  60  27
181 243 248 15  213 72  23  182 15  247 195 64  96  146 246 192
149 240 167 76  129 82  137 233 36  68  129 57  236 146 151 198
162 158 215 14  156 223 72  1   127 209 102 154 155 210 82  17
115 182 167 164 87  196 58  215 99  42  188 43  50  85  100 25
124 80  232 126 102 104 80  192 157 177 56  228 246 106 129 117
170 39  247 53  229 140 45  8   173 18  12  77  27  69  80  81
51  112 175 106 135 241 154 138 155 3   118 175 104 16  205 158
78  57  187 88  164 242 105 29  69  152 206 110 248 255 112 139
242 238 61  155 252 127 12  63  226 236 230 139 52  168 125 136
227 221 195 99  179 247 153 165 191 235 64  81  35  235 195 197
232 251 42  187 64  152 157 207 129 160 83  112 148 229 142 211
199 243 96  16  146 12  61  150 62  80  60  134 144 112 52  216
154 234 171 227 245 33  89  58  230 189 142 136 25  72  103 48
75  38  199 176 206 140 110 159 184 0   244 155 39  59  187 51
99  10  186 2   192 200 113 160 42  110 205 254 200 227 134 133
52  94  160 31  46  26  134 191 214 88  229 2   158 208 71  69
219 40  88  32  180 63  211 190 136 53  86  187 201 255 22  13
95  122 43  78  60  26  102 36  113 121 226 90  160 58  137 133
24  187 191 160 65  4   182 129 62  23  187 102 224 21  240 27
3   11  48  160 206 63  120 185 13  54  255 145 172 66  3   128
22  142 55  171 108 113 47  87  120 95  221 151 239 89  143 152
220 134 159 77  169 239 255 123 214 134 81  93  228 7   171 194
