P2
16
32
255
90  112 185 111 122 160 95  232 104 203 64  75  161 175 149 46
67  145 170 176 58  193 116 154 161 252 251 173 109 71  160 183
205 106 180 79  155 230 30  119 188 201 42  99  5   233 232 187
35  246 25  233 93  47  65  146 75  139 47  250 191 77  102 42
199 83  126 162 102 164 226 37  74  245 139 87  94  13  142 186
230 21  222 4   42  252 97  109 174 49  34  58  56  16  156 116
7   208 242 51  181 96  208 138 27  52  35  117 180 188 159 207
13  58  60  253 160 186 142 158 58  71  175 247 63  210 58  238
81  220 237 202 98  221 51  17  116 214 247 216 244 51  230 74
108 93  166 138 30  93  61  141 255 71  238 221 233 12  46  0
162 227 61  107 251 70  161 143 174 96  202 65  8   128 61  15
17  194 36  237 231 57  169 60  121 152 226 30  177 132 221 28
187 147 79  57  45  209 120 115 197 105 143 6   33  183 34  221
121 33  49  23  131 91  22  12  25  114 170 208 0   109 177 48
71  42  2   105 185 86  192 83  76  214 154 14  234 237 238 55
214 49  240 127 27  199 171 27  73  221 119 235 100 196 92  230
71  204 207 123 21  120 148 177 207 126 145 16  216 135 151 24
216 18  206 7   199 5   18  216 242 122 122 221 89  81  24  193
64  154 3   87  165 174 100 152 35  97  12  70  75  236 175 112
242 27  68  133 108 240 11  189 56  87  200 137 152 37  19  218
220 33  44  199 228 246 158 83  5   160 28  174 118 208 152 230
64  8   190 49  97  62  66  129 147 129 25  209 3   151 110 154
17  190 194 252 159 167 243 148 41  209 17  93  171 103 246 196
134 178 40  225 16  180 245 137 96  236 14  60  173 189 24  79
25  12  134 114 159 185 87  17  248 138 133 176 66  143 241 101
139 138 97  76  132 207 240 50  9   67  154 163 215 194 239 145
234 64  19  137 25  106 113 12  82  93  144 196 1   14  104 217
159 247 108 75  175 26  159 28  85  109 107 16  93  60  189 151
208 68  109 207 205 200 236 198 143 147 73  179 33  135 39  44
219 0   198 141 230 226 229 19  95  131 82  239 117 88  116 62
95  192 245 218 10  129 232 184 204 61  253 171 216 145 191 43
150 133 140 148 112 200 217 136 241 116 182 66  73  246 5   155
