P2
16
32
255
158 226 114 113 243 44  236 29  182 101 167 119 84  217 212 241
65  54  40  248 165 3   16  137 101 14  218 38  123 48  76  217
131 38  244 189 204 38  211 231 204 95  151 224 45  251 148 181
63  226 4   220 216 232 55  219 162 31  49  49  84  96  185 39
72  247 214 186 82  187 141 136 167 232 42  193 204 235 254 182
65  154 74  66  247 136 153 150 127 220 114 9   137 242 189 151
208 76  178 213 252 244 195 229 28  177 54  232 211 57  45  51
164 165 151 89  249 62  159 147 221 32  217 51  208 202 72  119
0   96  208 9   212 39  85  25  235 193 95  75  29  67  213 45
104 180 128 73  164 122 155 215 122 103 170 156 102 208 181 181
241 198 95  73  27  53  246 185 167 17  18  203 226 29  127 41
28  215 252 130 132 110 205 252 132 97  250 214 7   82  216 53
7   15  152 117 213 129 15  61  58  118 50  25  153 60  228 79
247 225 132 36  246 197 207 135 214 234 170 64  135 238 48  172
186 95  96  143 136 232 171 8   169 240 98  208 32  107 146 50
59  34  68  215 198 220 190 144 50  82  59  210 100 134 25  19
253 193 32  18  245 97  57  56  186 100 37  217 181 158 133 50
59  197 95  215 20  193 74  190 115 36  108 155 29  74  197 209
157 234 103 252 38  158 225 115 27  198 61  109 62  155 63  17
72  86  52  125 4   251 48  132 47  28  6   58  171 31  56  236
123 122 216 19  216 35  134 179 173 150 160 181 95  159 115 36
112 101 139 237 243 252 208 159 159 209 67  227 5   124 214 153
183 136 123 101 222 153 58  63  123 150 111 145 13  116 79  146
184 193 130 75  194 70  41  224 196 37  24  55  22  18  216 158
147 134 6   0   217 169 154 168 135 113 86  202 3   78  137 107
77  120 50  115 109 239 216 141 89  52  127 85  140 195 12  98
223 134 236 150 95  243 13  17  135 78  108 156 239 14  193 35
152 204 81  31  167 96  59  190 88  9   62  99  116 114 110 132
101 160 70  160 123 69  35  182 197 203 116 69  214 6   5   166
139 99  185 215 12  159 243 87  8   212 79  160 46  46  195 122
199 103 134 178 44  5   168 107 202 187 72  194 16  1   172 125
42  214 190 78  229 19  43  127 7   108 146 227 112 34  8   145
