P2
16
32
255
86  78  105 118 154 204 142 18  214 174 76  108 150 42  190 117
72  20  166 12  121 108 4   165 196 250 76  67  8   46  244 46
8   89  81  67  179 91  15  118 83  39  57  187 67  7   70  39
42  171 123 171 188 186 152 86  142 154 184 109 108 29  113 253
236 2   225 50  217 140 155 104 243 16  108 111 23  219 13  64
221 34  160 191 107 108 116 70  176 246 165 170 95  34  228 136
111 101 213 143 168 166 198 19  136 201 236 97  125 190 162 7
133 96  217 178 167 155 61  31  156 123 201 92  40  34  195 43
203 240 76  134 107 205 95  46  145 50  58  242 101 124 175 8
145 122 245 31  170 47  137 145 117 140 129 0   109 231 132 120
78  77  175 209 53  178 230 93  12  147 74  55  162 226 225 179
126 81  34  209 124 118 99  134 124 252 75  22  196 52  227 207
12  61  168 127 113 73  28  212 71  209 185 190 146 5   155 222
13  146 240 139 74  149 15  164 218 221 165 161 245 60  210 82
76  215 185 182 23  156 10  191 42  234 34  39  26  167 203 73
130 212 152 67  206 208 85  50  6   7   70  151 99  224 245 88
161 148 68  166 4   57  2   30  143 21  163 123 8   164 174 102
69  225 180 225 182 233 118 144 212 108 19  32  229 105 137 69
128 176 80  167 145 47  82  251 116 51  159 128 112 181 146 125
112 72  9   83  51  139 215 212 129 245 132 65  98  196 242 15
216 161 12  223 41  27  246 31  167 40  194 169 203 29  152 169
202 168 101 238 208 56  215 129 6   212 128 216 2   96  177 192
209 163 195 152 34  92  160 191 76  149 31  137 164 173 209 184
50  151 5   251 206 11  116 90  47  208 151 159 24  71  125 208
98  4   157 224 98  38  7   183 220 188 67  152 140 43  238 171
177 227 246 224 118 35  9   136 232 35  97  97  49  59  38  104
62  5   193 123 10  127 9   135 114 71  22  31  224 78  221 153
74  6   231 105 3   49  223 118 144 155 33  225 220 6   105 178
65  67  68  227 241 10  150 35  219 124 145 124 24  89  0   30
54  251 247 60  227 191 241 199 164 26  86  159 60  97  255 70
202 221 216 52  246 206 45  88  107 75  224 153 186 162 101 19
241 28  234 205 26  225 53  245 212 102 45  97  210 215 93  171
