P2
16
32
255
159 76  231 91  101 253 137 83  249 244 92  196 97  47  114 91
72  152 160 72  203 160 111 102 38  69  163 153 191 80  69  15
229 222 179 126 146 183 28  141 182 208 142 116 3   227 233 124
21  30  216 106 133 41  240 253 144 147 10  60  246 230 234 248
242 124 87  104 227 42  92  145 196 190 178 99  54  220 154 30
157 28  219 181 63  183 140 117 118 34  171 34  211 74  30  249
172 39  187 50  252 115 167 58  139 69  45  180 140 201 59  23
169 38  66  161 229 26  247 94  8   180 2   225 120 162 19  229
89  5   228 83  82  80  118 211 84  61  79  147 87  162 71  151
119 111 87  2   254 15  249 180 181 132 45  152 54  207 71  19
12  58  46  27  5   128 23  13  206 101 20  3   18  66  67  145
215 186 50  75  221 221 212 182 13  170 183 32  252 226 167 170
59  246 114 210 207 159 229 63  16  255 244 104 123 147 50  114
55  227 24  173 243 229 75  89  42  24  252 84  175 152 226 165
133 101 190 139 19  221 141 164 148 110 137 37  129 137 18  163
11  169 154 158 24  138 57  255 129 205 102 64  7   167 231 116
106 249 247 229 42  108 126 52  156 130 51  67  77  42  190 104
62  128 37  32  70  26  205 179 168 61  99  30  10  24  165 181
154 107 213 198 123 71  140 114 240 156 195 214 192 128 138 133
120 211 159 15  54  51  176 157 129 118 213 48  7   68  46  224
173 50  103 236 176 76  36  228 165 189 136 57  183 118 178 126
40  212 16  195 146 199 77  27  234 200 33  184 170 160 122 42
91  10  74  53  219 45  246 146 185 157 175 88  167 233 99  211
43  217 70  47  23  132 55  125 60  50  210 158 38  21  190 171
145 0   52  126 187 196 3   202 197 126 228 34  150 122 219 39
97  143 225 64  222 37  89  240 50  183 226 66  55  146 73  143
217 180 131 195 161 94  63  182 197 84  102 235 248 182 32  193
98  106 54  189 143 158 76  44  63  80  114 227 13  87  190 35
239 53  70  2   21  68  205 245 226 225 111 170 128 2   150 155
43  216 33  24  189 197 140 190 49  104 140 110 238 239 242 39
6   254 42  95  190 180 76  251 202 29  52  143 99  229 222 25
98  121 223 204 204 121 134 46  149 124 241 238 140 182 173 14
