P2
16
32
255
63  250 105 47  53  218 120 181 254 71  28  97  248 136 215 68
15  211 18  182 246 52  181 184 211 170 161 47  170 136 164 109
38  4   120 88  41  96  162 117 41  200 242 191 228 218 201 33
201 40  108 87  102 31  210 214 131 122 231 99  62  179 15  117
93  176 113 181 147 135 60  76  203 232 16  116 190 19  82  90
131 76  48  241 58  242 78  14  56  245 100 253 146 222 1   47
85  245 75  10  189 203 126 67  148 128 119 2   94  190 109 13
12  216 54  94  238 229 176 17  17  174 66  80  93  120 56  129
84  195 39  128 40  88  253 34  168 232 245 250 111 218 60  181
102 77  120 169 17  98  17  98  121 169 164 140 79  221 147 83
150 29  168 148 31  101 121 222 250 181 234 167 56  130 180 25
252 23  239 169 77  26  206 194 59  187 192 43  124 101 112 42
227 116 171 20  54  253 253 127 252 199 159 157 190 36  74  191
30  226 132 240 189 123 20  136 214 110 211 50  146 109 138 29
99  255 186 173 176 18  170 33  215 36  88  174 212 187 167 226
249 32  118 102 237 153 153 255 44  57  121 214 93  44  14  218
68  203 108 227 224 149 13  107 181 90  75  192 1   164 243 175
101 237 216 184 176 139 46  212 14  1   77  198 30  7   12  55
17  11  149 234 143 152 127 212 179 96  132 94  140 170 108 16
37  250 205 36  152 27  59  172 208 54  50  121 176 94  50  222
71  149 219 114 229 33  39  77  121 47  198 192 197 14  254 94
90  212 91  10  244 52  217 186 15  112 245 199 126 167 131 203
87  161 220 202 53  6   243 17  1   233 144 204 124 236 90  98
60  75  205 189 197 91  92  106 85  76  144 65  71  95  213 47
190 159 217 81  38  8   225 234 27  25  210 157 49  121 116 209
65  111 101 81  87  250 198 5   171 25  38  37  181 192 136 25
116 85  214 208 238 40  167 126 207 45  0   182 204 111 193 137
138 196 156 99  27  140 172 135 0   200 181 127 229 38  6   122
16  234 189 112 251 44  21  26  180 54  87  194 164 124 211 165
195 48  58  247 97  99  81  210 251 169 150 75  233 204 211 201
117 196 110 229 238 206 167 6   153 41  14  1   74  73  249 152
115 81  214 153 108 221 37  63  226 43  78  242 44  199 185 176
